<mxfile host="app.diagrams.net" agent="Mozilla/5.0 (Macintosh; Intel Mac OS X 10_15_7) AppleWebKit/605.1.15 (KHTML, like Gecko) Version/18.3.1 Safari/605.1.15" version="26.2.14">
  <diagram name="Page-1" id="kw5tApQOLxetqISVFKjF">
    <mxGraphModel dx="3964" dy="3262" grid="1" gridSize="10" guides="1" tooltips="1" connect="1" arrows="1" fold="1" page="1" pageScale="1" pageWidth="3000" pageHeight="3000" background="light-dark(#FFFFFF,#000000)" math="0" shadow="0">
      <root>
        <mxCell id="0" />
        <mxCell id="1" parent="0" />
        <mxCell id="RP1mrb15_0kgAFn6U0BM-28" value="When Kamran &quot;&lt;font&gt;retweets&lt;/font&gt;&quot; Ali&#39;s Tweet on X" style="text;html=1;align=left;verticalAlign=middle;whiteSpace=wrap;rounded=0;fontFamily=Gloria Hallelujah;fontSource=https%3A%2F%2Ffonts.googleapis.com%2Fcss%3Ffamily%3DGloria%2BHallelujah;fontSize=110;fontColor=default;" parent="1" vertex="1">
          <mxGeometry x="168.03" y="100" width="2751.97" height="96.33" as="geometry" />
        </mxCell>
        <mxCell id="RP1mrb15_0kgAFn6U0BM-29" value="" style="shape=link;html=1;rounded=0;fontFamily=Gloria Hallelujah;fontSource=https%3A%2F%2Ffonts.googleapis.com%2Fcss%3Ffamily%3DGloria%2BHallelujah;fontSize=31;fontColor=default;width=0;strokeColor=light-dark(#000000,#76B7AC);strokeWidth=8;" parent="1" edge="1">
          <mxGeometry width="100" relative="1" as="geometry">
            <mxPoint x="130" y="220" as="sourcePoint" />
            <mxPoint x="130" y="100" as="targetPoint" />
          </mxGeometry>
        </mxCell>
        <mxCell id="RP1mrb15_0kgAFn6U0BM-31" value="&lt;font style=&quot;color: light-dark(rgb(0, 0, 0), rgb(118, 183, 172)); font-size: 80px;&quot;&gt;System Design Engineer&lt;/font&gt;" style="text;html=1;align=center;verticalAlign=middle;whiteSpace=wrap;rounded=1;fontFamily=Gloria Hallelujah;fontSource=https%3A%2F%2Ffonts.googleapis.com%2Fcss%3Ffamily%3DGloria%2BHallelujah;fontSize=60;fontColor=default;strokeColor=none;sketch=1;curveFitting=1;jiggle=2;" parent="1" vertex="1">
          <mxGeometry x="2270" y="270" width="707.42" height="280" as="geometry" />
        </mxCell>
        <mxCell id="txtexfgfXJNiwjfz8xMw-1" value="1. Retweet Initiation" style="whiteSpace=wrap;strokeWidth=5;dashed=1;dashPattern=12 12;rounded=1;sketch=1;curveFitting=1;jiggle=2;fillColor=#d5e8d4;strokeColor=#82b366;fillStyle=solid;fontSize=75;fontFamily=Gloria Hallelujah;fontSource=https%3A%2F%2Ffonts.googleapis.com%2Fcss%3Ffamily%3DGloria%2BHallelujah;" vertex="1" parent="1">
          <mxGeometry x="1010" y="340" width="1020" height="185" as="geometry" />
        </mxCell>
        <mxCell id="txtexfgfXJNiwjfz8xMw-2" value="2. API Validation" style="whiteSpace=wrap;strokeWidth=5;rounded=1;dashed=1;dashPattern=12 12;sketch=1;jiggle=2;fillStyle=solid;curveFitting=1;strokeColor=#82b366;align=center;verticalAlign=middle;fontFamily=Gloria Hallelujah;fontSource=https%3A%2F%2Ffonts.googleapis.com%2Fcss%3Ffamily%3DGloria%2BHallelujah;fontSize=75;fontColor=default;fillColor=#d5e8d4;" vertex="1" parent="1">
          <mxGeometry x="1080" y="720" width="880" height="148" as="geometry" />
        </mxCell>
        <mxCell id="txtexfgfXJNiwjfz8xMw-3" value="3. Tweet Object Creation" style="whiteSpace=wrap;strokeWidth=5;rounded=1;dashed=1;dashPattern=12 12;sketch=1;jiggle=2;fillStyle=solid;curveFitting=1;strokeColor=#82b366;align=center;verticalAlign=middle;fontFamily=Gloria Hallelujah;fontSource=https%3A%2F%2Ffonts.googleapis.com%2Fcss%3Ffamily%3DGloria%2BHallelujah;fontSize=75;fontColor=default;fillColor=#d5e8d4;" vertex="1" parent="1">
          <mxGeometry x="970" y="1030" width="1100" height="188" as="geometry" />
        </mxCell>
        <mxCell id="txtexfgfXJNiwjfz8xMw-4" value="4. Graph DB Update" style="whiteSpace=wrap;strokeWidth=5;rounded=1;dashed=1;dashPattern=12 12;sketch=1;jiggle=2;fillStyle=solid;curveFitting=1;strokeColor=#82b366;align=center;verticalAlign=middle;fontFamily=Gloria Hallelujah;fontSource=https%3A%2F%2Ffonts.googleapis.com%2Fcss%3Ffamily%3DGloria%2BHallelujah;fontSize=75;fontColor=default;fillColor=#d5e8d4;" vertex="1" parent="1">
          <mxGeometry x="320" y="1430" width="920" height="190" as="geometry" />
        </mxCell>
        <mxCell id="txtexfgfXJNiwjfz8xMw-5" value="5. Retweet Counter Increment" style="whiteSpace=wrap;strokeWidth=5;rounded=1;dashed=1;dashPattern=12 12;sketch=1;jiggle=2;fillStyle=solid;curveFitting=1;strokeColor=#82b366;align=center;verticalAlign=middle;fontFamily=Gloria Hallelujah;fontSource=https%3A%2F%2Ffonts.googleapis.com%2Fcss%3Ffamily%3DGloria%2BHallelujah;fontSize=75;fontColor=default;fillColor=#d5e8d4;" vertex="1" parent="1">
          <mxGeometry x="1480" y="1430" width="1320" height="200" as="geometry" />
        </mxCell>
        <mxCell id="txtexfgfXJNiwjfz8xMw-6" value="6. Update timeline (Fanout)" style="whiteSpace=wrap;strokeWidth=5;rounded=1;dashed=1;dashPattern=12 12;sketch=1;jiggle=2;fillStyle=solid;curveFitting=1;strokeColor=#82b366;align=center;verticalAlign=middle;fontFamily=Gloria Hallelujah;fontSource=https%3A%2F%2Ffonts.googleapis.com%2Fcss%3Ffamily%3DGloria%2BHallelujah;fontSize=75;fontColor=default;fillColor=#d5e8d4;" vertex="1" parent="1">
          <mxGeometry x="147.5" y="1830" width="1270" height="168" as="geometry" />
        </mxCell>
        <mxCell id="txtexfgfXJNiwjfz8xMw-7" value="7. Send Push Notification" style="whiteSpace=wrap;strokeWidth=5;rounded=1;dashed=1;dashPattern=12 12;sketch=1;jiggle=2;fillStyle=solid;curveFitting=1;strokeColor=#82b366;align=center;verticalAlign=middle;fontFamily=Gloria Hallelujah;fontSource=https%3A%2F%2Ffonts.googleapis.com%2Fcss%3Ffamily%3DGloria%2BHallelujah;fontSize=75;fontColor=default;fillColor=#d5e8d4;" vertex="1" parent="1">
          <mxGeometry x="145" y="2210" width="1275" height="208" as="geometry" />
        </mxCell>
        <mxCell id="txtexfgfXJNiwjfz8xMw-11" value="8. update search Index" style="whiteSpace=wrap;strokeWidth=5;rounded=1;dashed=1;dashPattern=12 12;sketch=1;jiggle=2;fillStyle=solid;curveFitting=1;strokeColor=#82b366;align=center;verticalAlign=middle;fontFamily=Gloria Hallelujah;fontSource=https%3A%2F%2Ffonts.googleapis.com%2Fcss%3Ffamily%3DGloria%2BHallelujah;fontSize=75;fontColor=default;fillColor=#d5e8d4;" vertex="1" parent="1">
          <mxGeometry x="1720" y="2224" width="1090" height="180" as="geometry" />
        </mxCell>
        <mxCell id="txtexfgfXJNiwjfz8xMw-12" value="9. Client Response" style="whiteSpace=wrap;strokeWidth=5;rounded=1;dashed=1;dashPattern=12 12;sketch=1;jiggle=2;fillStyle=solid;curveFitting=1;strokeColor=#82b366;align=center;verticalAlign=middle;fontFamily=Gloria Hallelujah;fontSource=https%3A%2F%2Ffonts.googleapis.com%2Fcss%3Ffamily%3DGloria%2BHallelujah;fontSize=75;fontColor=default;fillColor=#d5e8d4;" vertex="1" parent="1">
          <mxGeometry x="1190" y="2710" width="770" height="188" as="geometry" />
        </mxCell>
        <mxCell id="txtexfgfXJNiwjfz8xMw-13" value="" style="startArrow=none;endArrow=block;exitX=0.5;exitY=1;entryX=0.5;entryY=0;rounded=1;fillStyle=solid;strokeColor=#b85450;strokeWidth=10;align=center;verticalAlign=middle;fontFamily=Helvetica;fontSize=11;fontColor=default;labelBackgroundColor=default;fillColor=#f8cecc;shape=flexArrow;" edge="1" parent="1" source="txtexfgfXJNiwjfz8xMw-1" target="txtexfgfXJNiwjfz8xMw-2">
          <mxGeometry relative="1" as="geometry">
            <Array as="points" />
          </mxGeometry>
        </mxCell>
        <mxCell id="txtexfgfXJNiwjfz8xMw-14" value="" style="startArrow=none;endArrow=block;exitX=0.5;exitY=1;entryX=0.5;entryY=0;rounded=1;fillStyle=solid;strokeColor=#b85450;strokeWidth=10;align=center;verticalAlign=middle;fontFamily=Helvetica;fontSize=11;fontColor=default;labelBackgroundColor=default;fillColor=#f8cecc;shape=flexArrow;" edge="1" parent="1" source="txtexfgfXJNiwjfz8xMw-2" target="txtexfgfXJNiwjfz8xMw-3">
          <mxGeometry relative="1" as="geometry">
            <Array as="points" />
          </mxGeometry>
        </mxCell>
        <mxCell id="txtexfgfXJNiwjfz8xMw-15" value="" style="startArrow=none;endArrow=block;exitX=0;exitY=0.5;entryX=0.5;entryY=0;rounded=1;edgeStyle=orthogonalEdgeStyle;fillStyle=solid;strokeColor=#b85450;strokeWidth=10;align=center;verticalAlign=middle;fontFamily=Helvetica;fontSize=11;fontColor=default;labelBackgroundColor=default;fillColor=#f8cecc;shape=flexArrow;exitDx=0;exitDy=0;" edge="1" parent="1" source="txtexfgfXJNiwjfz8xMw-3" target="txtexfgfXJNiwjfz8xMw-4">
          <mxGeometry relative="1" as="geometry" />
        </mxCell>
        <mxCell id="txtexfgfXJNiwjfz8xMw-16" value="" style="startArrow=none;endArrow=block;exitX=1;exitY=0.5;entryX=0.5;entryY=-0.01;rounded=1;fillStyle=solid;strokeColor=#b85450;strokeWidth=10;align=center;verticalAlign=middle;fontFamily=Helvetica;fontSize=11;fontColor=default;labelBackgroundColor=default;fillColor=#f8cecc;exitDx=0;exitDy=0;edgeStyle=orthogonalEdgeStyle;shape=flexArrow;" edge="1" parent="1" source="txtexfgfXJNiwjfz8xMw-3" target="txtexfgfXJNiwjfz8xMw-5">
          <mxGeometry relative="1" as="geometry" />
        </mxCell>
        <mxCell id="txtexfgfXJNiwjfz8xMw-17" value="" style="startArrow=none;endArrow=block;exitX=0.5;exitY=1;entryX=0.5;entryY=0;rounded=1;fillStyle=solid;strokeColor=#b85450;strokeWidth=10;align=center;verticalAlign=middle;fontFamily=Helvetica;fontSize=11;fontColor=default;labelBackgroundColor=default;fillColor=#f8cecc;shape=flexArrow;" edge="1" parent="1" source="txtexfgfXJNiwjfz8xMw-4" target="txtexfgfXJNiwjfz8xMw-6">
          <mxGeometry relative="1" as="geometry">
            <Array as="points" />
          </mxGeometry>
        </mxCell>
        <mxCell id="txtexfgfXJNiwjfz8xMw-18" value="" style="startArrow=none;endArrow=block;exitX=0.5;exitY=1;entryX=0.5;entryY=0;rounded=1;fillStyle=solid;strokeColor=#b85450;strokeWidth=10;align=center;verticalAlign=middle;fontFamily=Helvetica;fontSize=75;fontColor=default;labelBackgroundColor=default;fillColor=#f8cecc;entryDx=0;entryDy=0;shape=flexArrow;exitDx=0;exitDy=0;" edge="1" parent="1" source="txtexfgfXJNiwjfz8xMw-6" target="txtexfgfXJNiwjfz8xMw-7">
          <mxGeometry relative="1" as="geometry" />
        </mxCell>
        <mxCell id="txtexfgfXJNiwjfz8xMw-22" value="" style="startArrow=none;endArrow=block;entryX=0;entryY=0.5;rounded=1;fillStyle=solid;strokeColor=#b85450;strokeWidth=10;align=center;verticalAlign=middle;fontFamily=Helvetica;fontSize=11;fontColor=default;labelBackgroundColor=default;fillColor=#f8cecc;shape=flexArrow;edgeStyle=orthogonalEdgeStyle;entryDx=0;entryDy=0;exitX=1;exitY=0.5;exitDx=0;exitDy=0;" edge="1" parent="1" source="txtexfgfXJNiwjfz8xMw-7" target="txtexfgfXJNiwjfz8xMw-11">
          <mxGeometry relative="1" as="geometry">
            <mxPoint x="1260" y="2290" as="sourcePoint" />
          </mxGeometry>
        </mxCell>
        <mxCell id="txtexfgfXJNiwjfz8xMw-25" value="" style="startArrow=none;endArrow=block;exitX=0.5;exitY=0.99;entryX=0.5;entryY=0;rounded=1;edgeStyle=orthogonalEdgeStyle;fillStyle=solid;strokeColor=#b85450;strokeWidth=10;align=center;verticalAlign=middle;fontFamily=Helvetica;fontSize=11;fontColor=default;labelBackgroundColor=default;fillColor=#f8cecc;shape=flexArrow;entryDx=0;entryDy=0;" edge="1" parent="1" source="txtexfgfXJNiwjfz8xMw-11" target="txtexfgfXJNiwjfz8xMw-12">
          <mxGeometry relative="1" as="geometry" />
        </mxCell>
      </root>
    </mxGraphModel>
  </diagram>
</mxfile>
